# xmcd
#
# Track frame offsets:
#   150
#   16856
#   33967
#   47646
#   65788
#   82457
#   94720
#   110734
#   126932
#   141682
#   156503
#   172568
#   191950
#   202626
#   215423
#   228620
#   242329
#   260837
#   275331
#   290530
#   305462
#   320077
#   335524
#
# Disc length: 4686 seconds
#
# Revision: 0
# Processed by: cddbd v1.5.1PL0 Copyright (c) Steve Scherf et al.
# Submitted via: Media_Universe 3.0
#
DISCID=62124c17
DTITLE=Tracy Byrd - Ten Rounds and No Ordinary Man
DYEAR=1900
DGENRE=Classical
TTITLE0=Somebodys Dream
TTITLE1=Just Let Me Be In Love
TTITLE2=Ten Rounds With Jose Cuervo
TTITLE3=Wild Fire
TTITLE4=How Much Does The World Weigh
TTITLE5=Summertime Fever
TTITLE6=Crazy Every Time
TTITLE7=A Good Way To Get On My Bad Side
TTITLE8=Needed
TTITLE9=Trying Not To Love You
TTITLE10=Never Gonna Break Again
TTITLE11=Keeper Of The Stars
TTITLE12=The First Step
TTITLE13=Lifestyles Of The Not So Rich And Famous
TTITLE14=Anybody Elses Heart But Mine
TTITLE15=Watermellon Crawl
TTITLE16=The Keeper Of The Stars
TTITLE17=You Never Know Just How Good Youve Got It
TTITLE18=Redneck Roses
TTITLE19=Right About Now
TTITLE20=Pink Flamingos
TTITLE21=If Mama Aint Happy
TTITLE22=Dreaming About Babies
EXTD=
EXTT0=
EXTT1=
EXTT2=
EXTT3=
EXTT4=
EXTT5=
EXTT6=
EXTT7=
EXTT8=
EXTT9=
EXTT10=
EXTT11=
EXTT12=
EXTT13=
EXTT14=
EXTT15=
EXTT16=
EXTT17=
EXTT18=
EXTT19=
EXTT20=
EXTT21=
EXTT22=
PLAYORDER=
